<?xml version="1.0" standalone="no"?>
<!DOCTYPE svg PUBLIC "-//W3C//DTD SVG 20010904//EN"
 "http://www.w3.org/TR/2001/REC-SVG-20010904/DTD/svg10.dtd">
<svg version="1.0" xmlns="http://www.w3.org/2000/svg"
 width="528.000000pt" height="472.000000pt" viewBox="0 0 528.000000 472.000000"
 preserveAspectRatio="xMidYMid meet">

<g transform="translate(0.000000,472.000000) scale(0.100000,-0.100000)"
fill="#000000" stroke="none">
<path d="M2566 4600 c-53 -16 -68 -39 -61 -90 4 -25 18 -72 31 -104 22 -55 24
-72 23 -220 -1 -89 -4 -242 -8 -341 l-6 -179 -60 -11 c-76 -13 -112 -28 -197
-78 l-67 -39 21 -51 c11 -29 24 -62 29 -74 5 -13 11 -23 15 -23 3 0 29 21 57
46 60 54 113 83 158 86 29 3 34 -1 42 -29 7 -23 5 -50 -7 -97 -14 -59 -16
-192 -16 -1318 1 -689 5 -1325 10 -1414 10 -178 24 -247 75 -362 18 -42 32
-78 30 -80 -5 -5 -75 30 -166 85 -108 66 -313 236 -455 377 -110 111 -208 233
-299 376 -27 41 -49 76 -50 77 0 1 -18 -2 -40 -8 -27 -8 -45 -8 -63 0 l-24 11
23 -37 c198 -324 391 -539 724 -805 125 -100 313 -208 360 -208 57 0 267 127
422 255 169 139 376 348 467 470 93 125 175 244 200 293 17 32 17 33 -1 23
-11 -5 -37 -7 -59 -4 -39 5 -39 4 -74 -53 -178 -297 -566 -666 -858 -819 -40
-21 -75 -36 -78 -33 -3 3 6 28 20 55 34 68 64 165 76 248 6 43 12 594 16 1435
5 1264 5 1370 -11 1424 -21 71 -14 146 14 146 30 0 119 -50 170 -96 46 -42 51
-43 60 -26 16 30 53 133 49 136 -1 2 -34 21 -73 43 -74 43 -146 70 -205 76
l-35 3 -7 329 -8 329 30 86 c30 87 37 134 22 157 -23 36 -144 54 -216 33z m94
-135 c0 -57 -4 -95 -10 -95 -6 0 -10 38 -10 95 0 57 4 95 10 95 6 0 10 -38 10
-95z m20 -123 c0 -9 -59 -32 -83 -32 -25 0 -21 19 6 30 28 11 77 13 77 2z m30
-41 c0 -20 -66 -51 -108 -51 -43 0 -22 28 36 48 72 26 72 26 72 3z m0 -60 c0
-14 -13 -24 -47 -35 -57 -19 -83 -20 -83 -3 0 7 28 23 63 34 34 12 63 22 65
22 1 1 2 -8 2 -18z m0 -60 c0 -14 -13 -24 -47 -35 -57 -19 -83 -20 -83 -3 0 7
28 23 63 34 34 12 63 22 65 22 1 1 2 -8 2 -18z m0 -60 c0 -14 -13 -24 -42 -35
-80 -28 -88 -29 -88 -9 0 14 16 24 63 40 34 12 63 22 65 22 1 1 2 -8 2 -18z
m7 -73 c-8 -23 -147 -61 -147 -40 1 18 19 30 75 49 59 20 83 17 72 -9z m3 -53
c0 -17 -55 -42 -113 -52 -64 -10 -42 18 34 44 79 26 79 26 79 8z m0 -60 c0
-18 -29 -34 -93 -51 -41 -11 -49 -10 -54 2 -7 20 -6 21 63 43 74 24 84 25 84
6z m-2 -62 c-3 -16 -56 -41 -120 -57 -23 -5 -28 -3 -28 12 0 14 16 23 68 39
85 26 84 26 80 6z m2 -61 c0 -13 -15 -23 -53 -35 -65 -20 -97 -22 -97 -4 0 8
29 22 68 34 86 26 82 26 82 5z m0 -62 c0 -15 -12 -23 -57 -36 -32 -8 -66 -18
-75 -20 -13 -4 -18 0 -18 15 0 15 10 23 43 31 23 6 53 15 67 20 37 13 40 12
40 -10z m0 -73 c0 -26 -6 -36 -25 -45 -33 -15 -74 -15 -104 1 -45 23 -37 28
127 76 1 1 2 -14 2 -32z m-110 -177 c14 -11 32 -20 40 -20 8 0 26 9 40 20 36
28 41 25 34 -19 -4 -24 0 -60 10 -94 27 -92 24 -101 -36 -120 -49 -15 -55 -15
-100 1 -55 19 -58 30 -32 119 10 34 14 70 10 94 -7 44 -2 47 34 19z m-11 -251
l31 -11 0 -1461 c-1 -1585 1 -1539 -52 -1338 l-22 86 -3 1354 c-2 745 -1 1361
1 1368 6 16 5 16 45 2z m146 -1350 c0 -1282 -1 -1358 -18 -1433 -11 -43 -27
-97 -37 -120 -18 -40 -19 -5 -19 1426 l-1 1466 28 10 c15 6 32 9 37 8 7 -2 10
-462 10 -1357z"/>
<path d="M2606 3405 c-14 -11 -20 -28 -20 -62 -1 -45 1 -47 32 -56 41 -13 96
2 100 27 2 10 1 33 -2 50 -9 50 -69 72 -110 41z"/>
<path d="M3151 3477 c-5 -12 -16 -39 -25 -61 -9 -21 -14 -42 -11 -47 7 -10
251 -90 365 -119 47 -12 191 -39 320 -61 129 -22 243 -42 253 -45 16 -5 17
-17 12 -122 -3 -64 -10 -226 -16 -360 l-11 -242 43 -48 c24 -26 46 -48 50 -50
3 -1 9 41 13 95 15 228 36 655 36 741 0 88 -1 93 -24 101 -13 5 -133 28 -267
50 -281 47 -422 81 -602 145 l-128 46 -8 -23z"/>
<path d="M1985 3444 c-163 -58 -287 -87 -597 -139 -145 -25 -264 -45 -265 -45
-14 0 18 -826 35 -907 l7 -35 51 59 51 58 -13 250 c-7 138 -13 296 -14 352 0
88 2 102 18 107 9 3 116 21 237 41 235 39 425 84 570 135 50 18 95 35 102 39
14 8 -34 132 -51 130 -6 -1 -65 -21 -131 -45z"/>
<path d="M2399 3306 c-279 -128 -450 -179 -804 -241 -115 -20 -212 -38 -214
-40 -6 -7 11 -425 18 -425 3 0 22 21 40 46 124 164 284 314 386 359 153 69
366 110 480 94 100 -14 147 -45 179 -119 14 -33 15 -22 16 168 0 111 -1 202
-2 202 -2 0 -46 -20 -99 -44z"/>
<path d="M2800 3157 l0 -192 19 35 c46 88 164 120 340 94 98 -14 254 -60 326
-97 88 -44 219 -166 350 -325 l60 -73 6 103 c4 57 7 153 8 214 l1 112 -87 16
c-49 9 -151 27 -228 41 -267 49 -432 101 -682 213 l-113 51 0 -192z"/>
<path d="M2120 3039 c-87 -13 -282 -81 -333 -116 -83 -57 -194 -173 -340 -353
-173 -213 -336 -400 -348 -400 -5 0 -14 -10 -20 -22 -6 -13 -8 -19 -3 -15 5 5
133 130 284 277 378 369 399 386 563 448 150 56 195 68 287 78 55 5 68 3 87
-12 l23 -19 -51 -145 c-70 -202 -92 -309 -92 -450 1 -85 6 -136 22 -194 37
-138 140 -304 212 -341 15 -8 30 -15 34 -15 14 0 2 36 -26 76 -45 66 -96 179
-121 269 -18 66 -22 108 -22 245 -1 185 7 222 72 339 57 101 92 186 94 226 1
38 -21 76 -63 107 -30 22 -165 31 -259 17z"/>
<path d="M2961 3039 c-50 -10 -83 -37 -102 -81 -21 -50 -8 -86 118 -328 39
-76 56 -180 49 -305 -10 -194 -59 -350 -150 -488 -37 -56 -44 -77 -25 -77 28
0 83 47 124 104 177 248 190 523 45 909 -22 59 -40 114 -40 122 0 8 12 22 26
32 48 31 223 -7 434 -95 96 -41 197 -127 510 -435 256 -252 359 -348 239 -222
-111 117 -199 220 -350 405 -234 288 -315 355 -501 415 -155 50 -275 64 -377
44z"/>
<path d="M2486 2858 c-3 -18 -27 -73 -53 -123 -82 -159 -91 -179 -102 -233
-23 -110 -5 -318 37 -442 24 -69 72 -164 106 -209 l26 -35 0 537 c0 295 -2
537 -4 537 -2 0 -7 -15 -10 -32z"/>
<path d="M2109 2870 c-147 -19 -303 -96 -427 -211 -100 -93 -199 -229 -166
-229 3 0 33 14 66 32 l59 32 23 -29 23 -29 42 19 c41 18 42 18 62 -3 27 -30
45 -27 109 13 71 46 138 49 175 9 13 -14 27 -39 31 -56 4 -23 9 -27 14 -17 15
26 118 374 125 420 6 43 5 47 -17 52 -26 8 -41 7 -119 -3z"/>
<path d="M3062 2873 c-20 -4 -22 -8 -16 -41 11 -62 118 -420 128 -430 3 -2 10
8 16 24 21 55 48 74 104 74 41 0 62 -8 106 -35 63 -41 83 -43 104 -14 14 21
16 21 55 6 47 -19 64 -15 80 19 l11 25 28 -19 c28 -20 103 -54 108 -49 7 7
-33 71 -81 130 -113 136 -298 260 -436 291 -74 16 -174 26 -207 19z"/>
<path d="M2801 2350 c-1 -524 -1 -525 19 -500 34 43 107 202 125 270 10 39 19
123 22 211 5 131 3 154 -16 212 -11 37 -35 90 -52 119 -33 55 -75 145 -89 188
-5 14 -9 -211 -9 -500z"/>
<path d="M2002 2463 c-7 -2 -41 -48 -76 -101 -36 -54 -97 -135 -136 -182 -62
-75 -68 -85 -50 -88 80 -13 260 129 324 255 37 73 1 142 -62 116z"/>
<path d="M3239 2460 c-54 -32 -17 -130 92 -241 78 -80 140 -117 211 -127 l42
-5 -68 79 c-37 43 -97 124 -134 179 -84 128 -99 141 -143 115z"/>
<path d="M1243 2211 c-123 -126 -223 -232 -223 -235 0 -18 76 -2 135 28 112
59 240 173 366 326 78 95 76 92 45 80 -44 -16 -77 -13 -83 10 -3 11 -8 20 -12
19 -3 0 -106 -103 -228 -228z"/>
<path d="M3809 2419 c-15 -22 -19 -23 -58 -13 -22 6 -41 9 -41 7 0 -8 71 -94
134 -163 149 -164 324 -285 402 -278 l37 3 -230 234 -229 234 -15 -24z"/>
<path d="M1504 2263 c-66 -80 -136 -166 -157 -189 -43 -47 -37 -60 21 -45 84
23 174 106 305 279 l57 77 -32 3 c-18 2 -37 8 -42 13 -6 5 -15 9 -22 9 -6 0
-65 -66 -130 -147z"/>
<path d="M1871 2393 c-19 -8 -48 -12 -65 -9 -29 5 -36 -1 -101 -81 -38 -48
-105 -126 -148 -175 -76 -86 -77 -88 -48 -88 58 0 105 31 211 139 58 58 124
135 148 169 24 34 42 62 40 61 -2 0 -18 -7 -37 -16z"/>
<path d="M3442 2328 c93 -123 225 -251 280 -272 25 -10 54 -16 65 -14 16 2 -7
34 -124 173 -139 164 -146 170 -178 167 -19 -1 -48 4 -64 13 -17 8 -33 15 -36
15 -3 0 22 -37 57 -82z"/>
<path d="M3647 2404 c-4 -4 -23 -10 -42 -13 l-35 -6 47 -70 c26 -38 90 -113
142 -166 82 -83 104 -99 150 -113 29 -9 57 -13 62 -10 10 6 -38 68 -218 283
-77 94 -93 108 -106 95z"/>
<path d="M3205 2290 c10 -42 146 -309 196 -384 70 -107 140 -166 196 -166 l33
0 -49 78 c-26 42 -70 113 -97 157 -42 70 -115 158 -247 299 -33 36 -37 38 -32
16z"/>
<path d="M2019 2233 c-111 -114 -172 -193 -248 -323 -41 -69 -83 -135 -94
-147 l-20 -23 40 0 c55 0 131 61 193 157 57 86 204 377 198 393 -2 6 -33 -20
-69 -57z"/>
<path d="M2089 2205 c-12 -28 -48 -108 -81 -180 -123 -266 -138 -305 -119
-305 55 0 144 130 207 300 37 101 44 133 39 165 -10 71 -21 76 -46 20z"/>
<path d="M3166 2219 c-12 -61 -5 -98 37 -211 44 -115 93 -202 142 -250 26 -26
62 -44 71 -36 5 6 -46 125 -139 323 -41 88 -77 171 -81 183 -10 31 -22 27 -30
-9z"/>
<path d="M3126 2039 c-17 -63 -17 -65 8 -182 34 -157 50 -185 77 -135 8 14 10
53 6 112 -4 71 -12 110 -39 180 l-35 90 -17 -65z"/>
<path d="M2115 2014 c-33 -95 -48 -197 -36 -260 20 -104 44 -72 82 107 23 110
21 178 -5 214 -11 15 -16 8 -41 -61z"/>
<path d="M1781 2069 c-24 -5 -47 -6 -52 -4 -4 3 -16 -6 -26 -20 -47 -67 -124
-158 -201 -236 l-84 -86 33 -5 c18 -3 48 -1 66 4 74 20 194 150 279 301 18 31
32 57 31 56 -1 -1 -22 -5 -46 -10z"/>
<path d="M3471 2073 c0 -8 62 -108 110 -179 14 -22 56 -67 92 -101 70 -65 117
-86 169 -76 l30 6 -65 66 c-59 60 -136 150 -208 243 -22 28 -34 34 -70 36 -23
2 -46 5 -51 8 -4 3 -8 2 -7 -3z"/>
<path d="M1540 2008 c-85 -22 -92 -27 -168 -123 -30 -38 -82 -98 -116 -132
-56 -58 -58 -63 -36 -64 82 -4 126 18 205 104 49 52 202 240 193 236 -2 -1
-37 -10 -78 -21z"/>
<path d="M3705 1989 c22 -24 54 -62 70 -84 115 -157 188 -215 269 -215 l50 0
-50 53 c-49 51 -102 115 -157 189 -33 45 -53 56 -126 74 -31 7 -65 16 -76 20
-14 5 -7 -6 20 -37z"/>
<path d="M1261 1974 c-12 -15 -74 -83 -139 -152 -64 -68 -118 -128 -120 -133
-6 -14 56 -10 95 6 79 33 168 118 302 288 12 16 9 17 -52 17 -59 0 -68 -3 -86
-26z"/>
<path d="M3896 1988 c20 -34 128 -159 178 -206 30 -29 79 -64 108 -77 53 -25
108 -33 108 -16 0 4 -25 34 -56 66 -30 32 -94 100 -141 152 l-86 93 -59 0
c-45 0 -57 -3 -52 -12z"/>
<path d="M1145 1944 c-26 -10 -60 -14 -99 -11 l-58 5 -172 -173 c-94 -95 -211
-205 -259 -245 -86 -70 -259 -180 -283 -180 -7 0 -16 -5 -20 -11 -5 -8 16 -10
72 -8 132 7 250 75 494 285 92 79 380 354 370 353 -3 0 -23 -7 -45 -15z"/>
<path d="M4153 1906 c176 -182 531 -483 626 -531 72 -36 145 -55 210 -54 57 0
63 2 41 12 -63 28 -202 115 -265 165 -111 89 -273 242 -365 345 l-85 95 -60
-5 c-41 -3 -74 0 -104 11 -24 9 -45 16 -47 16 -2 0 20 -24 49 -54z"/>
<path d="M2205 1914 c-3 -22 -13 -72 -21 -112 -17 -82 -21 -199 -7 -213 30
-30 65 32 87 155 l14 79 -33 65 -34 65 -6 -39z"/>
<path d="M3046 1880 l-30 -59 18 -96 c18 -93 43 -145 71 -145 17 0 25 22 25
68 1 43 -42 292 -50 292 -3 0 -18 -27 -34 -60z"/>
<path d="M2296 1778 c-4 -18 -9 -89 -13 -157 -5 -101 -4 -123 7 -119 17 5 34
54 56 163 l18 85 -30 31 -31 31 -7 -34z"/>
<path d="M2962 1777 l-33 -34 16 -69 c25 -111 47 -175 59 -171 12 4 12 106 -1
230 l-8 78 -33 -34z"/>
<path d="M1831 1776 c-35 -38 -121 -76 -171 -76 -44 -1 -46 -3 -90 -63 -25
-34 -71 -92 -103 -129 -32 -36 -54 -69 -50 -71 72 -42 189 18 300 155 102 125
186 260 114 184z"/>
<path d="M1953 1648 c-93 -174 -100 -188 -84 -188 38 0 116 56 170 122 l60 73
-20 21 c-12 12 -26 45 -32 74 l-12 51 -82 -153z"/>
<path d="M3250 1768 c0 -21 -10 -50 -26 -73 l-25 -37 26 -38 c44 -63 116 -129
162 -146 24 -9 45 -15 48 -12 5 4 -160 316 -176 333 -5 5 -9 -5 -9 -27z"/>
<path d="M3446 1775 c146 -229 273 -348 370 -348 70 0 75 15 23 70 -25 26 -71
83 -104 126 -58 75 -60 77 -103 77 -47 0 -105 26 -166 73 l-39 31 19 -29z"/>
<path d="M2890 1720 c-8 -5 -23 -7 -32 -4 -24 7 -23 -7 6 -107 13 -46 29 -111
35 -144 15 -84 30 -291 23 -317 -3 -14 -1 -19 6 -14 39 24 43 223 7 433 -31
178 -27 164 -45 153z"/>
<path d="M2386 1704 c-2 -6 -15 -70 -27 -140 -28 -158 -32 -350 -8 -404 16
-35 16 -34 23 85 9 162 22 243 52 350 14 50 28 97 30 106 3 11 -4 15 -31 15
-19 0 -36 -5 -39 -12z"/>
<path d="M1920 1680 c-8 -6 -34 -10 -57 -10 -40 0 -44 -3 -90 -62 -26 -35 -67
-87 -90 -116 -24 -29 -43 -57 -43 -62 0 -24 70 -9 121 26 79 54 91 67 139 149
43 76 47 92 20 75z"/>
<path d="M1286 1567 c-120 -144 -273 -308 -389 -420 -89 -85 -91 -88 -57 -82
58 11 231 122 341 219 95 84 220 220 309 335 l34 44 -31 -6 c-19 -4 -49 0 -72
8 l-41 14 -94 -112z"/>
<path d="M3360 1670 c0 -3 16 -33 35 -66 38 -64 119 -144 170 -168 40 -19 85
-21 85 -3 0 12 -99 141 -155 203 -25 27 -39 33 -82 37 -29 2 -53 1 -53 -3z"/>
<path d="M3875 1664 c-17 -8 -45 -11 -63 -8 -30 5 -32 3 -24 -13 46 -84 328
-374 445 -457 78 -55 210 -126 236 -126 11 0 -43 61 -144 163 -88 89 -216 226
-283 304 -67 78 -125 144 -130 146 -4 2 -20 -2 -37 -9z"/>
<path d="M2473 1565 c-31 -126 -31 -126 -43 -266 -9 -109 -8 -143 9 -265 31
-224 35 -272 21 -289 -19 -23 -55 -18 -91 12 -21 18 -41 26 -59 25 -20 -2 -35
6 -61 35 -24 27 -41 37 -57 35 -33 -5 -67 21 -97 73 -15 25 -32 45 -39 45 -49
0 -154 155 -177 258 l-11 52 -49 -42 c-27 -22 -49 -43 -49 -45 0 -10 128 -195
178 -258 103 -128 251 -271 422 -406 60 -47 150 -103 156 -97 3 3 0 34 -7 69
-8 41 -14 260 -18 609 l-6 545 -22 -90z"/>
<path d="M909 1598 c-30 -24 -72 -56 -95 -73 -23 -16 -95 -68 -161 -115 -65
-47 -152 -107 -193 -134 -82 -54 -80 -66 9 -46 143 32 337 153 559 350 l53 47
-47 7 c-69 9 -68 9 -125 -36z"/>
<path d="M1117 1601 c-40 -45 -247 -245 -412 -399 l-110 -103 100 48 c244 114
482 301 577 452 l20 31 -55 0 c-31 0 -62 2 -70 5 -8 4 -28 -10 -50 -34z"/>
<path d="M4062 1631 l-62 -6 46 -60 c94 -121 195 -208 369 -317 88 -55 275
-152 280 -146 1 2 -32 34 -74 72 -42 38 -169 158 -283 268 -113 109 -208 197
-210 196 -1 -1 -31 -4 -66 -7z"/>
<path d="M4243 1633 l-32 -4 47 -42 c176 -156 353 -278 472 -325 78 -32 170
-51 170 -36 0 5 -35 31 -78 58 -42 27 -157 108 -255 180 -97 72 -191 141 -209
154 -30 21 -46 23 -115 15z"/>
<path d="M2127 1580 c-15 -126 3 -378 24 -325 4 11 8 32 8 46 1 15 13 67 27
115 40 135 40 132 12 127 -29 -5 -43 9 -55 57 l-9 35 -7 -55z"/>
<path d="M2795 1102 c0 -383 -4 -546 -13 -596 -7 -37 -11 -70 -9 -72 8 -8 157
98 247 176 140 121 244 225 316 316 72 92 184 254 184 266 0 8 -76 80 -90 86
-4 2 -11 -17 -14 -41 -4 -24 -20 -71 -36 -105 -30 -64 -113 -162 -136 -162 -7
0 -26 -19 -42 -42 -41 -60 -66 -80 -95 -76 -17 2 -34 -8 -60 -36 -31 -32 -41
-38 -66 -33 -23 5 -34 0 -57 -24 -43 -45 -96 -36 -97 17 -1 44 24 251 34 287
12 42 11 148 -1 283 -11 106 -43 261 -58 276 -4 4 -7 -230 -7 -520z"/>
<path d="M3150 1590 c-14 -41 -18 -45 -47 -45 -18 0 -33 -2 -33 -6 0 -3 11
-39 25 -80 14 -41 32 -110 39 -154 l13 -80 12 55 c8 34 11 111 9 205 -3 149
-3 150 -18 105z"/>
<path d="M2064 1568 c-26 -41 -27 -46 -17 -103 6 -33 17 -76 26 -95 14 -34 15
-30 18 103 2 75 3 137 2 137 -2 0 -15 -19 -29 -42z"/>
<path d="M3202 1472 c0 -78 2 -142 3 -142 2 0 13 28 24 62 28 82 27 133 -3
182 l-23 39 -1 -141z"/>
<path d="M3027 1489 c-12 -21 -22 -29 -33 -25 -14 5 -15 -1 -10 -47 4 -29 7
-99 8 -155 0 -56 2 -102 4 -102 10 0 53 102 63 149 9 41 9 74 0 133 -6 43 -12
78 -13 78 0 0 -9 -14 -19 -31z"/>
<path d="M2236 1464 c-15 -112 4 -221 50 -289 12 -17 14 -10 14 56 0 42 3 109
6 150 6 73 6 75 -20 87 -14 6 -26 18 -26 27 0 35 -18 11 -24 -31z"/>
<path d="M1972 1467 l-33 -34 30 -66 c17 -37 31 -67 33 -67 4 0 8 200 4 200
-1 0 -17 -15 -34 -33z"/>
<path d="M3288 1418 c4 -128 5 -129 36 -55 l28 67 -26 35 c-15 19 -30 35 -34
35 -4 0 -6 -37 -4 -82z"/>
<path d="M1780 1420 c-5 -3 -50 -57 -100 -120 -99 -127 -99 -141 -2 -94 38 18
86 57 145 116 48 49 87 92 87 96 0 9 -116 11 -130 2z"/>
<path d="M3403 1397 c32 -47 119 -131 167 -164 50 -33 116 -60 126 -51 5 6
-75 115 -154 208 -28 33 -33 35 -95 35 l-65 0 21 -28z"/>
<path d="M1300 1329 c-41 -39 -128 -118 -193 -176 -64 -59 -115 -108 -113
-110 11 -12 136 53 252 129 115 77 280 206 272 213 -2 1 -34 5 -73 8 l-70 6
-75 -70z"/>
<path d="M1530 1349 c-30 -28 -108 -98 -173 -155 -90 -80 -112 -104 -95 -104
31 0 202 78 261 119 53 36 177 149 177 161 0 8 -70 30 -96 30 -11 -1 -44 -24
-74 -51z"/>
<path d="M1924 1318 c3 -71 10 -99 36 -156 18 -39 47 -85 66 -103 l33 -32 -28
106 c-16 59 -38 119 -49 134 -10 16 -29 53 -41 83 l-22 55 5 -87z"/>
<path d="M3360 1380 c0 -10 -18 -53 -39 -94 -22 -41 -43 -92 -47 -113 -4 -21
-15 -62 -25 -90 -10 -29 -14 -53 -10 -53 16 0 64 66 94 130 25 53 32 80 35
152 3 49 2 88 -2 88 -3 0 -6 -9 -6 -20z"/>
<path d="M3622 1386 l-32 -12 35 -41 c74 -87 305 -227 394 -240 l36 -5 -55 49
c-30 26 -82 73 -115 103 -175 162 -192 172 -263 146z"/>
<path d="M3818 1393 l-46 -4 46 -42 c76 -69 130 -110 253 -190 152 -99 294
-158 204 -84 -22 17 -112 98 -200 180 -125 115 -165 147 -185 145 -14 -1 -46
-3 -72 -5z"/>
<path d="M3241 1334 c-13 -30 -40 -81 -61 -112 -36 -54 -38 -62 -43 -162 -3
-58 -9 -116 -12 -130 -6 -25 -6 -25 10 -5 30 36 83 150 99 212 13 50 37 242
31 250 -1 2 -12 -22 -24 -53z"/>
<path d="M2034 1308 c3 -43 13 -111 22 -150 25 -111 131 -310 110 -207 -4 19
-10 78 -13 133 -5 84 -10 102 -30 126 -13 16 -39 62 -59 102 l-35 73 5 -77z"/>
<path d="M2185 1256 c-16 -103 23 -290 77 -369 l25 -37 -5 138 c-4 126 -6 140
-29 176 -14 22 -34 62 -44 90 l-17 50 -7 -48z"/>
<path d="M3086 1255 c-10 -27 -29 -66 -42 -85 -20 -31 -24 -50 -28 -155 -3
-66 -8 -131 -12 -144 -14 -47 17 -10 51 61 40 83 57 174 53 288 l-3 85 -19
-50z"/>
<path d="M2310 1104 c-19 -22 -4 -138 26 -205 14 -32 40 -70 56 -86 17 -15 29
-23 26 -18 -3 6 -11 60 -17 120 -14 133 -25 169 -56 189 -20 13 -25 14 -35 0z"/>
<path d="M2943 1098 c-11 -13 -23 -28 -26 -34 -9 -15 -39 -265 -33 -271 9 -9
65 79 86 135 22 59 25 182 4 189 -5 2 -19 -7 -31 -19z"/>
</g>
</svg>
